<svg width="960" height="960" xmlns="http://www.w3.org/2000/svg" xmlns:xlink="http://www.w3.org/1999/xlink" overflow="hidden"><defs><clipPath id="clip0"><path d="M0 0 960 0 960 960 0 960Z" fill-rule="evenodd" clip-rule="evenodd"/></clipPath></defs><g clip-path="url(#clip0)"><rect x="0" y="0" width="960" height="960" fill="#FFFFFF"/><path d="M34 307C34 255.638 75.8614 214 127.5 214 179.139 214 221 255.638 221 307 221 358.362 179.139 400 127.5 400 75.8614 400 34 358.362 34 307Z" fill="#BE4E4E" fill-rule="evenodd" fill-opacity="0.301961"/><path d="M671 172C671 97.4416 731.665 37 806.5 37 881.335 37 942 97.4416 942 172 942 246.558 881.335 307 806.5 307 731.665 307 671 246.558 671 172Z" fill="#58B46A" fill-rule="evenodd" fill-opacity="0.298039"/><path d="M480 653C480 596.667 525.443 551 581.5 551 637.557 551 683 596.667 683 653 683 709.333 637.557 755 581.5 755 525.443 755 480 709.333 480 653Z" fill="#CDCD3F" fill-rule="evenodd" fill-opacity="0.298039"/><path d="M752 855.5C752 809.384 789.384 772 835.5 772 881.616 772 919 809.384 919 855.5 919 901.616 881.616 939 835.5 939 789.384 939 752 901.616 752 855.5Z" fill="#0070C0" fill-rule="evenodd" fill-opacity="0.298039"/><path d="M87 794C87 748.16 124.384 711 170.5 711 216.616 711 254 748.16 254 794 254 839.84 216.616 877 170.5 877 124.384 877 87 839.84 87 794Z" fill="#45697B" fill-rule="evenodd" fill-opacity="0.298039"/></g></svg>