<svg width="1280" height="720" xmlns="http://www.w3.org/2000/svg" xmlns:xlink="http://www.w3.org/1999/xlink" overflow="hidden"><defs><clipPath id="clip0"><path d="M0 0 1280 0 1280 720 0 720Z" fill-rule="evenodd" clip-rule="evenodd"/></clipPath></defs><g clip-path="url(#clip0)"><rect x="0" y="0" width="1280" height="720" fill="#FFFFFF"/><path d="M101 155.5C101 106.623 140.623 67 189.5 67 238.377 67 278 106.623 278 155.5 278 204.377 238.377 244 189.5 244 140.623 244 101 204.377 101 155.5Z" fill="#BE4E4E" fill-rule="evenodd" fill-opacity="0.301961"/><path d="M877 171C877 100.308 934.084 43 1004.5 43 1074.92 43 1132 100.308 1132 171 1132 241.692 1074.92 299 1004.5 299 934.084 299 877 241.692 877 171Z" fill="#58B46A" fill-rule="evenodd" fill-opacity="0.298039"/><path d="M593 402C593 348.981 636.205 306 689.5 306 742.795 306 786 348.981 786 402 786 455.019 742.795 498 689.5 498 636.205 498 593 455.019 593 402Z" fill="#CDCD3F" fill-rule="evenodd" fill-opacity="0.298039"/><path d="M936 582C936 538.37 971.37 503 1015 503 1058.63 503 1094 538.37 1094 582 1094 625.63 1058.63 661 1015 661 971.37 661 936 625.63 936 582Z" fill="#0070C0" fill-rule="evenodd" fill-opacity="0.298039"/><path d="M120 623C120 579.37 155.37 544 199 544 242.63 544 278 579.37 278 623 278 666.63 242.63 702 199 702 155.37 702 120 666.63 120 623Z" fill="#45697B" fill-rule="evenodd" fill-opacity="0.298039"/></g></svg>